<svg width="540" height="360" viewBox="0 0 540 360" fill="none" xmlns="http://www.w3.org/2000/svg">
<rect x="1" y="1" width="538" height="358" rx="14" fill="#1E1E1E" stroke="#00FFFF" stroke-width="2"/>
<rect x="45" y="270" width="90" height="45" fill="#C00000"/>
<rect x="45" y="225" width="90" height="45" fill="#CCC500"/>
<rect x="45" y="180" width="90" height="45" fill="#00C000"/>
<rect x="45" y="135" width="90" height="45" fill="#00C000"/>
<path d="M135 90V70C135 64.4772 130.523 60 125 60H112.5C108.358 60 105 56.6421 105 52.5C105 48.3579 101.642 45 97.5 45H82.5C78.3579 45 75 48.3579 75 52.5C75 56.6421 71.6421 60 67.5 60H55C49.4772 60 45 64.4772 45 70V90M135 90H45M135 90V135M45 90V135M45 135H135M45 135V180M135 135V180M135 180H45M135 180V225M45 180V225M45 225H135M45 225V270M135 225V270M135 270H45M135 270V305C135 310.523 130.523 315 125 315H55C49.4772 315 45 310.523 45 305V270" stroke="white" stroke-width="6" stroke-linejoin="round"/>
<rect x="62" y="166" width="56" height="28" rx="5" fill="white"/>
<path d="M75.886 187.199C75.2894 187.189 74.6928 187.076 74.0962 186.858C73.4996 186.64 72.9551 186.273 72.4627 185.757C71.9703 185.236 71.5749 184.533 71.2766 183.648C70.9783 182.758 70.8292 181.64 70.8292 180.295C70.8292 179.008 70.9499 177.866 71.1914 176.872C71.4329 175.873 71.7833 175.033 72.2425 174.351C72.7018 173.664 73.2558 173.143 73.9045 172.788C74.5579 172.433 75.2942 172.256 76.1133 172.256C76.9277 172.256 77.6521 172.419 78.2866 172.746C78.9258 173.068 79.4466 173.518 79.8491 174.095C80.2515 174.673 80.512 175.338 80.6303 176.091H78.8974C78.7364 175.437 78.4239 174.895 77.9599 174.464C77.4959 174.034 76.8803 173.818 76.1133 173.818C74.9864 173.818 74.0986 174.308 73.4499 175.288C72.806 176.268 72.4817 177.644 72.4769 179.415H72.5906C72.8557 179.012 73.1706 178.669 73.5352 178.385C73.9045 178.096 74.3117 177.874 74.7567 177.717C75.2018 177.561 75.6729 177.483 76.1701 177.483C77.0034 177.483 77.7657 177.691 78.457 178.108C79.1483 178.52 79.7023 179.09 80.119 179.82C80.5356 180.544 80.744 181.375 80.744 182.312C80.744 183.212 80.5427 184.036 80.1403 184.784C79.7378 185.527 79.172 186.119 78.4428 186.56C77.7184 186.995 76.8661 187.208 75.886 187.199ZM75.886 185.636C76.4826 185.636 77.0176 185.487 77.4911 185.189C77.9693 184.891 78.3458 184.491 78.6204 183.989C78.8997 183.487 79.0394 182.928 79.0394 182.312C79.0394 181.711 78.9045 181.164 78.6346 180.672C78.3694 180.175 78.0025 179.779 77.5337 179.486C77.0697 179.192 76.5394 179.045 75.9428 179.045C75.493 179.045 75.074 179.135 74.6857 179.315C74.2975 179.491 73.9566 179.732 73.663 180.04C73.3742 180.348 73.1469 180.7 72.9812 181.098C72.8155 181.491 72.7326 181.905 72.7326 182.341C72.7326 182.919 72.8675 183.458 73.1374 183.96C73.4121 184.462 73.7861 184.867 74.2596 185.175C74.7378 185.482 75.2799 185.636 75.886 185.636ZM88.0824 187.199C87.2491 187.199 86.4986 187.033 85.831 186.702C85.1634 186.37 84.6283 185.916 84.2259 185.338C83.8234 184.76 83.6032 184.102 83.5653 183.364H85.2699C85.3362 184.022 85.6345 184.566 86.1648 184.997C86.6998 185.423 87.339 185.636 88.0824 185.636C88.679 185.636 89.2093 185.497 89.6733 185.217C90.142 184.938 90.509 184.554 90.7741 184.067C91.044 183.574 91.179 183.018 91.179 182.398C91.179 181.763 91.0393 181.197 90.7599 180.7C90.4853 180.198 90.1065 179.803 89.6236 179.514C89.1406 179.225 88.589 179.079 87.9688 179.074C87.5237 179.069 87.0668 179.138 86.598 179.28C86.1293 179.417 85.7434 179.595 85.4403 179.812L83.7926 179.614L84.6733 172.455H92.2301V174.017H86.1506L85.6392 178.307H85.7244C86.0227 178.07 86.3968 177.874 86.8466 177.717C87.2964 177.561 87.7652 177.483 88.2528 177.483C89.143 177.483 89.9361 177.696 90.6321 178.122C91.3329 178.544 91.8821 179.121 92.2798 179.855C92.6823 180.589 92.8835 181.427 92.8835 182.369C92.8835 183.297 92.6752 184.126 92.2585 184.855C91.8466 185.58 91.2784 186.152 90.554 186.574C89.8295 186.991 89.0057 187.199 88.0824 187.199ZM103.12 184.273V183.506C103.12 182.975 103.229 182.49 103.446 182.05C103.669 181.605 103.991 181.25 104.412 180.984C104.838 180.714 105.355 180.58 105.961 180.58C106.576 180.58 107.092 180.714 107.509 180.984C107.926 181.25 108.24 181.605 108.453 182.05C108.667 182.49 108.773 182.975 108.773 183.506V184.273C108.773 184.803 108.664 185.291 108.446 185.736C108.233 186.176 107.916 186.531 107.495 186.801C107.078 187.066 106.567 187.199 105.961 187.199C105.345 187.199 104.827 187.066 104.405 186.801C103.984 186.531 103.664 186.176 103.446 185.736C103.229 185.291 103.12 184.803 103.12 184.273ZM104.569 183.506V184.273C104.569 184.713 104.673 185.108 104.881 185.459C105.089 185.804 105.449 185.977 105.961 185.977C106.458 185.977 106.808 185.804 107.012 185.459C107.22 185.108 107.324 184.713 107.324 184.273V183.506C107.324 183.065 107.225 182.672 107.026 182.327C106.827 181.976 106.472 181.801 105.961 181.801C105.463 181.801 105.106 181.976 104.888 182.327C104.675 182.672 104.569 183.065 104.569 183.506ZM95.8754 175.949V175.182C95.8754 174.652 95.9843 174.166 96.2021 173.726C96.4246 173.281 96.7466 172.926 97.168 172.661C97.5941 172.391 98.1102 172.256 98.7163 172.256C99.3318 172.256 99.8479 172.391 100.265 172.661C100.681 172.926 100.996 173.281 101.209 173.726C101.422 174.166 101.529 174.652 101.529 175.182V175.949C101.529 176.479 101.42 176.967 101.202 177.412C100.989 177.852 100.672 178.207 100.25 178.477C99.8337 178.742 99.3223 178.875 98.7163 178.875C98.1007 178.875 97.5823 178.742 97.1609 178.477C96.7395 178.207 96.4199 177.852 96.2021 177.412C95.9843 176.967 95.8754 176.479 95.8754 175.949ZM97.3242 175.182V175.949C97.3242 176.389 97.4284 176.785 97.6367 177.135C97.8451 177.481 98.2049 177.653 98.7163 177.653C99.2134 177.653 99.5638 177.481 99.7674 177.135C99.9757 176.785 100.08 176.389 100.08 175.949V175.182C100.08 174.741 99.9805 174.348 99.7816 174.003C99.5827 173.652 99.2276 173.477 98.7163 173.477C98.2191 173.477 97.8616 173.652 97.6438 174.003C97.4308 174.348 97.3242 174.741 97.3242 175.182ZM96.4151 187L106.415 172.455H108.034L98.0344 187H96.4151Z" fill="black"/>
<path d="M180 135V55C180 49.4772 184.477 45 190 45H405M180 135H495M180 135V225M495 135V55C495 49.4772 490.523 45 485 45H405M495 135V225M495 225V305C495 310.523 490.523 315 485 315H405M495 225H180M180 225V305C180 310.523 184.477 315 190 315H405M405 45V315" stroke="white" stroke-width="6"/>
<path d="M232.356 76.8182L240.128 98.858H240.435L248.208 76.8182H251.532L241.918 103H238.645L229.032 76.8182H232.356ZM261.35 103.409C259.577 103.409 258.022 102.987 256.684 102.143C255.354 101.3 254.314 100.119 253.564 98.6023C252.823 97.0852 252.452 95.3125 252.452 93.2841C252.452 91.2386 252.823 89.4531 253.564 87.9276C254.314 86.402 255.354 85.2173 256.684 84.3736C258.022 83.5298 259.577 83.108 261.35 83.108C263.123 83.108 264.674 83.5298 266.003 84.3736C267.341 85.2173 268.381 86.402 269.123 87.9276C269.873 89.4531 270.248 91.2386 270.248 93.2841C270.248 95.3125 269.873 97.0852 269.123 98.6023C268.381 100.119 267.341 101.3 266.003 102.143C264.674 102.987 263.123 103.409 261.35 103.409ZM261.35 100.699C262.697 100.699 263.805 100.354 264.674 99.6634C265.543 98.973 266.187 98.0653 266.604 96.9403C267.022 95.8153 267.231 94.5966 267.231 93.2841C267.231 91.9716 267.022 90.7486 266.604 89.6151C266.187 88.4815 265.543 87.5653 264.674 86.8665C263.805 86.1676 262.697 85.8182 261.35 85.8182C260.003 85.8182 258.895 86.1676 258.026 86.8665C257.157 87.5653 256.513 88.4815 256.096 89.6151C255.678 90.7486 255.469 91.9716 255.469 93.2841C255.469 94.5966 255.678 95.8153 256.096 96.9403C256.513 98.0653 257.157 98.973 258.026 99.6634C258.895 100.354 260.003 100.699 261.35 100.699ZM277.87 76.8182V103H274.853V76.8182H277.87ZM291.936 83.3636V85.9205H281.76V83.3636H291.936ZM284.726 78.6591H287.743V97.375C287.743 98.2273 287.866 98.8665 288.113 99.2926C288.369 99.7102 288.693 99.9915 289.085 100.136C289.486 100.273 289.907 100.341 290.351 100.341C290.683 100.341 290.956 100.324 291.169 100.29C291.382 100.247 291.552 100.213 291.68 100.188L292.294 102.898C292.089 102.974 291.804 103.051 291.437 103.128C291.071 103.213 290.606 103.256 290.044 103.256C289.192 103.256 288.356 103.072 287.538 102.706C286.729 102.339 286.055 101.781 285.518 101.031C284.99 100.281 284.726 99.3352 284.726 98.1932V78.6591ZM302.253 103.46C301.008 103.46 299.879 103.226 298.865 102.757C297.851 102.28 297.045 101.594 296.449 100.699C295.852 99.7955 295.554 98.7045 295.554 97.4261C295.554 96.3011 295.775 95.3892 296.219 94.6903C296.662 93.983 297.254 93.429 297.996 93.0284C298.737 92.6278 299.555 92.3295 300.45 92.1335C301.354 91.929 302.261 91.767 303.173 91.6477C304.366 91.4943 305.334 91.3793 306.075 91.3026C306.825 91.2173 307.371 91.0767 307.711 90.8807C308.061 90.6847 308.236 90.3437 308.236 89.858V89.7557C308.236 88.4943 307.89 87.5142 307.2 86.8153C306.518 86.1165 305.483 85.767 304.094 85.767C302.653 85.767 301.524 86.0824 300.706 86.7131C299.888 87.3437 299.312 88.017 298.98 88.733L296.116 87.7102C296.628 86.517 297.309 85.5881 298.162 84.9233C299.023 84.25 299.96 83.7812 300.974 83.517C301.997 83.2443 303.003 83.108 303.991 83.108C304.622 83.108 305.346 83.1847 306.165 83.3381C306.991 83.483 307.788 83.7855 308.555 84.2457C309.331 84.706 309.974 85.4006 310.486 86.3295C310.997 87.2585 311.253 88.5028 311.253 90.0625V103H308.236V100.341H308.082C307.878 100.767 307.537 101.223 307.059 101.709C306.582 102.195 305.947 102.608 305.155 102.949C304.362 103.29 303.395 103.46 302.253 103.46ZM302.713 100.75C303.906 100.75 304.912 100.516 305.73 100.047C306.557 99.5781 307.179 98.973 307.596 98.2315C308.023 97.4901 308.236 96.7102 308.236 95.892V93.1307C308.108 93.2841 307.827 93.4247 307.392 93.5526C306.966 93.6719 306.471 93.7784 305.909 93.8722C305.355 93.9574 304.814 94.0341 304.285 94.1023C303.765 94.1619 303.344 94.2131 303.02 94.2557C302.236 94.358 301.503 94.5241 300.821 94.7543C300.148 94.9759 299.602 95.3125 299.184 95.7642C298.775 96.2074 298.571 96.8125 298.571 97.5795C298.571 98.6278 298.959 99.4205 299.734 99.9574C300.518 100.486 301.511 100.75 302.713 100.75ZM324.686 110.773C323.228 110.773 321.975 110.585 320.927 110.21C319.879 109.844 319.005 109.358 318.306 108.753C317.616 108.156 317.066 107.517 316.657 106.835L319.061 105.148C319.333 105.506 319.678 105.915 320.096 106.375C320.514 106.844 321.085 107.249 321.809 107.589C322.542 107.939 323.501 108.114 324.686 108.114C326.271 108.114 327.579 107.73 328.61 106.963C329.642 106.196 330.157 104.994 330.157 103.358V99.3693H329.901C329.68 99.7273 329.365 100.17 328.955 100.699C328.555 101.219 327.975 101.683 327.217 102.092C326.467 102.493 325.453 102.693 324.174 102.693C322.589 102.693 321.166 102.318 319.904 101.568C318.651 100.818 317.659 99.7273 316.926 98.2955C316.201 96.8636 315.839 95.125 315.839 93.0795C315.839 91.0682 316.193 89.3168 316.9 87.8253C317.607 86.3253 318.592 85.1662 319.853 84.348C321.115 83.5213 322.572 83.108 324.225 83.108C325.504 83.108 326.518 83.321 327.268 83.7472C328.026 84.1648 328.606 84.642 329.007 85.179C329.416 85.7074 329.731 86.142 329.953 86.483H330.259V83.3636H333.174V103.562C333.174 105.25 332.791 106.622 332.024 107.679C331.265 108.744 330.242 109.524 328.955 110.018C327.677 110.521 326.254 110.773 324.686 110.773ZM324.583 99.983C325.794 99.983 326.816 99.706 327.651 99.152C328.487 98.598 329.122 97.8011 329.556 96.7614C329.991 95.7216 330.208 94.4773 330.208 93.0284C330.208 91.6136 329.995 90.3651 329.569 89.2827C329.143 88.2003 328.512 87.3523 327.677 86.7386C326.842 86.125 325.811 85.8182 324.583 85.8182C323.305 85.8182 322.24 86.142 321.387 86.7898C320.544 87.4375 319.909 88.3068 319.482 89.3977C319.065 90.4886 318.856 91.6989 318.856 93.0284C318.856 94.392 319.069 95.598 319.495 96.6463C319.93 97.6861 320.569 98.5043 321.413 99.1009C322.265 99.6889 323.322 99.983 324.583 99.983ZM346.93 103.409C345.038 103.409 343.406 102.991 342.034 102.156C340.67 101.312 339.617 100.136 338.876 98.6278C338.143 97.1108 337.776 95.3466 337.776 93.3352C337.776 91.3239 338.143 89.5511 338.876 88.017C339.617 86.4744 340.649 85.2727 341.97 84.4119C343.299 83.5426 344.85 83.108 346.623 83.108C347.646 83.108 348.656 83.2784 349.653 83.6193C350.65 83.9602 351.558 84.5142 352.376 85.2812C353.194 86.0398 353.846 87.0455 354.332 88.2983C354.818 89.5511 355.061 91.0937 355.061 92.9261V94.2045H339.924V91.5966H351.992C351.992 90.4886 351.771 89.5 351.328 88.6307C350.893 87.7614 350.271 87.0753 349.461 86.5724C348.66 86.0696 347.714 85.8182 346.623 85.8182C345.421 85.8182 344.382 86.1165 343.504 86.7131C342.634 87.3011 341.965 88.0682 341.497 89.0142C341.028 89.9602 340.794 90.9744 340.794 92.0568V93.7955C340.794 95.2784 341.049 96.5355 341.561 97.5668C342.08 98.5895 342.801 99.3693 343.721 99.9062C344.642 100.435 345.711 100.699 346.93 100.699C347.722 100.699 348.438 100.588 349.078 100.366C349.725 100.136 350.284 99.7955 350.752 99.3438C351.221 98.8835 351.583 98.3125 351.839 97.6307L354.754 98.4489C354.447 99.4375 353.931 100.307 353.207 101.057C352.482 101.798 351.588 102.378 350.522 102.795C349.457 103.205 348.259 103.409 346.93 103.409Z" fill="white"/>
<path d="M430.134 76.8182V103H426.963V80.142H426.81L420.418 84.3864V81.1648L426.963 76.8182H430.134ZM446.203 103.358C444.277 103.358 442.636 102.834 441.281 101.786C439.926 100.729 438.891 99.1989 438.175 97.196C437.459 95.1847 437.101 92.7557 437.101 89.9091C437.101 87.0795 437.459 84.6634 438.175 82.6605C438.899 80.6491 439.939 79.1151 441.294 78.0582C442.658 76.9929 444.294 76.4602 446.203 76.4602C448.112 76.4602 449.744 76.9929 451.099 78.0582C452.463 79.1151 453.503 80.6491 454.219 82.6605C454.943 84.6634 455.305 87.0795 455.305 89.9091C455.305 92.7557 454.947 95.1847 454.232 97.196C453.516 99.1989 452.48 100.729 451.125 101.786C449.77 102.834 448.129 103.358 446.203 103.358ZM446.203 100.545C448.112 100.545 449.595 99.625 450.652 97.7841C451.709 95.9432 452.237 93.3182 452.237 89.9091C452.237 87.642 451.994 85.7116 451.509 84.1179C451.031 82.5241 450.341 81.3097 449.438 80.4744C448.543 79.6392 447.464 79.2216 446.203 79.2216C444.311 79.2216 442.832 80.1548 441.767 82.0213C440.702 83.8793 440.169 86.5085 440.169 89.9091C440.169 92.1761 440.408 94.1023 440.885 95.6875C441.362 97.2727 442.048 98.4787 442.943 99.3054C443.847 100.132 444.933 100.545 446.203 100.545ZM461.697 76.8182L469.47 98.858H469.777L477.55 76.8182H480.874L471.26 103H467.987L458.374 76.8182H461.697Z" fill="white"/>
<path d="M437.841 192.358C436.085 192.358 434.534 192.047 433.187 191.425C431.849 190.794 430.805 189.929 430.055 188.83C429.305 187.722 428.934 186.46 428.943 185.045C428.934 183.937 429.152 182.915 429.595 181.977C430.038 181.031 430.643 180.243 431.41 179.612C432.186 178.973 433.051 178.568 434.006 178.398V178.244C432.753 177.92 431.756 177.217 431.014 176.135C430.273 175.044 429.906 173.804 429.915 172.415C429.906 171.085 430.243 169.896 430.925 168.848C431.606 167.8 432.544 166.973 433.737 166.368C434.939 165.763 436.307 165.46 437.841 165.46C439.358 165.46 440.713 165.763 441.906 166.368C443.099 166.973 444.037 167.8 444.719 168.848C445.409 169.896 445.758 171.085 445.767 172.415C445.758 173.804 445.379 175.044 444.629 176.135C443.888 177.217 442.903 177.92 441.676 178.244V178.398C442.622 178.568 443.474 178.973 444.233 179.612C444.991 180.243 445.596 181.031 446.048 181.977C446.5 182.915 446.73 183.937 446.738 185.045C446.73 186.46 446.346 187.722 445.588 188.83C444.838 189.929 443.794 190.794 442.456 191.425C441.126 192.047 439.588 192.358 437.841 192.358ZM437.841 189.545C439.025 189.545 440.048 189.354 440.909 188.97C441.77 188.587 442.434 188.045 442.903 187.347C443.372 186.648 443.611 185.83 443.619 184.892C443.611 183.903 443.355 183.03 442.852 182.271C442.349 181.513 441.663 180.916 440.794 180.482C439.933 180.047 438.949 179.83 437.841 179.83C436.724 179.83 435.727 180.047 434.849 180.482C433.98 180.916 433.294 181.513 432.791 182.271C432.297 183.03 432.054 183.903 432.062 184.892C432.054 185.83 432.28 186.648 432.74 187.347C433.209 188.045 433.878 188.587 434.747 188.97C435.616 189.354 436.648 189.545 437.841 189.545ZM437.841 177.119C438.778 177.119 439.609 176.932 440.334 176.557C441.067 176.182 441.642 175.658 442.059 174.984C442.477 174.311 442.69 173.523 442.699 172.619C442.69 171.733 442.481 170.962 442.072 170.305C441.663 169.641 441.096 169.129 440.372 168.771C439.648 168.405 438.804 168.222 437.841 168.222C436.861 168.222 436.004 168.405 435.271 168.771C434.538 169.129 433.971 169.641 433.571 170.305C433.17 170.962 432.974 171.733 432.983 172.619C432.974 173.523 433.175 174.311 433.584 174.984C434.001 175.658 434.577 176.182 435.309 176.557C436.042 176.932 436.886 177.119 437.841 177.119ZM453.172 192H449.848L459.462 165.818H462.735L472.348 192H469.024L461.2 169.96H460.996L453.172 192ZM454.399 181.773H467.797V184.585H454.399V181.773Z" fill="white"/>
<path d="M421.669 283.358C419.913 283.358 418.362 283.047 417.015 282.425C415.677 281.794 414.633 280.929 413.883 279.83C413.133 278.722 412.763 277.46 412.771 276.045C412.763 274.937 412.98 273.915 413.423 272.977C413.866 272.031 414.471 271.243 415.238 270.612C416.014 269.973 416.879 269.568 417.834 269.398V269.244C416.581 268.92 415.584 268.217 414.842 267.135C414.101 266.044 413.734 264.804 413.743 263.415C413.734 262.085 414.071 260.896 414.753 259.848C415.434 258.8 416.372 257.973 417.565 257.368C418.767 256.763 420.135 256.46 421.669 256.46C423.186 256.46 424.541 256.763 425.734 257.368C426.927 257.973 427.865 258.8 428.547 259.848C429.237 260.896 429.586 262.085 429.595 263.415C429.586 264.804 429.207 266.044 428.457 267.135C427.716 268.217 426.731 268.92 425.504 269.244V269.398C426.45 269.568 427.302 269.973 428.061 270.612C428.819 271.243 429.425 272.031 429.876 272.977C430.328 273.915 430.558 274.937 430.567 276.045C430.558 277.46 430.175 278.722 429.416 279.83C428.666 280.929 427.622 281.794 426.284 282.425C424.954 283.047 423.416 283.358 421.669 283.358ZM421.669 280.545C422.854 280.545 423.876 280.354 424.737 279.97C425.598 279.587 426.263 279.045 426.731 278.347C427.2 277.648 427.439 276.83 427.447 275.892C427.439 274.903 427.183 274.03 426.68 273.271C426.177 272.513 425.491 271.916 424.622 271.482C423.761 271.047 422.777 270.83 421.669 270.83C420.552 270.83 419.555 271.047 418.677 271.482C417.808 271.916 417.122 272.513 416.619 273.271C416.125 274.03 415.882 274.903 415.89 275.892C415.882 276.83 416.108 277.648 416.568 278.347C417.037 279.045 417.706 279.587 418.575 279.97C419.444 280.354 420.476 280.545 421.669 280.545ZM421.669 268.119C422.606 268.119 423.437 267.932 424.162 267.557C424.895 267.182 425.47 266.658 425.888 265.984C426.305 265.311 426.518 264.523 426.527 263.619C426.518 262.733 426.309 261.962 425.9 261.305C425.491 260.641 424.925 260.129 424.2 259.771C423.476 259.405 422.632 259.222 421.669 259.222C420.689 259.222 419.832 259.405 419.099 259.771C418.366 260.129 417.8 260.641 417.399 261.305C416.998 261.962 416.802 262.733 416.811 263.619C416.802 264.523 417.003 265.311 417.412 265.984C417.829 266.658 418.405 267.182 419.138 267.557C419.871 267.932 420.714 268.119 421.669 268.119ZM444.006 283.358C442.08 283.358 440.439 282.834 439.084 281.786C437.729 280.729 436.693 279.199 435.977 277.196C435.262 275.185 434.904 272.756 434.904 269.909C434.904 267.08 435.262 264.663 435.977 262.661C436.702 260.649 437.742 259.115 439.097 258.058C440.46 256.993 442.097 256.46 444.006 256.46C445.915 256.46 447.547 256.993 448.902 258.058C450.266 259.115 451.306 260.649 452.021 262.661C452.746 264.663 453.108 267.08 453.108 269.909C453.108 272.756 452.75 275.185 452.034 277.196C451.318 279.199 450.283 280.729 448.928 281.786C447.573 282.834 445.932 283.358 444.006 283.358ZM444.006 280.545C445.915 280.545 447.398 279.625 448.455 277.784C449.512 275.943 450.04 273.318 450.04 269.909C450.04 267.642 449.797 265.712 449.311 264.118C448.834 262.524 448.144 261.31 447.24 260.474C446.345 259.639 445.267 259.222 444.006 259.222C442.114 259.222 440.635 260.155 439.57 262.021C438.504 263.879 437.972 266.509 437.972 269.909C437.972 272.176 438.21 274.102 438.688 275.688C439.165 277.273 439.851 278.479 440.746 279.305C441.649 280.132 442.736 280.545 444.006 280.545ZM463.182 283L456.023 256.818H459.244L464.716 278.142H464.972L470.546 256.818H474.125L479.699 278.142H479.955L485.426 256.818H488.648L481.489 283H478.216L472.438 262.136H472.233L466.455 283H463.182Z" fill="white"/>
<path d="M252.543 175H249.373C249.185 174.088 248.857 173.287 248.388 172.597C247.928 171.906 247.366 171.327 246.701 170.858C246.045 170.381 245.316 170.023 244.515 169.784C243.714 169.545 242.879 169.426 242.009 169.426C240.424 169.426 238.988 169.827 237.701 170.628C236.423 171.429 235.404 172.609 234.646 174.169C233.896 175.729 233.521 177.642 233.521 179.909C233.521 182.176 233.896 184.089 234.646 185.649C235.404 187.209 236.423 188.389 237.701 189.19C238.988 189.991 240.424 190.392 242.009 190.392C242.879 190.392 243.714 190.273 244.515 190.034C245.316 189.795 246.045 189.442 246.701 188.973C247.366 188.496 247.928 187.912 248.388 187.222C248.857 186.523 249.185 185.722 249.373 184.818H252.543C252.305 186.156 251.87 187.354 251.239 188.411C250.609 189.467 249.825 190.366 248.887 191.108C247.95 191.841 246.897 192.399 245.729 192.783C244.57 193.166 243.33 193.358 242.009 193.358C239.776 193.358 237.79 192.812 236.052 191.722C234.313 190.631 232.945 189.08 231.948 187.068C230.951 185.057 230.452 182.67 230.452 179.909C230.452 177.148 230.951 174.761 231.948 172.75C232.945 170.739 234.313 169.188 236.052 168.097C237.79 167.006 239.776 166.46 242.009 166.46C243.33 166.46 244.57 166.652 245.729 167.036C246.897 167.419 247.95 167.982 248.887 168.723C249.825 169.456 250.609 170.351 251.239 171.408C251.87 172.456 252.305 173.653 252.543 175ZM269.632 184.972V173.364H272.65V193H269.632V189.676H269.428C268.968 190.673 268.252 191.521 267.28 192.22C266.309 192.911 265.081 193.256 263.598 193.256C262.371 193.256 261.28 192.987 260.326 192.45C259.371 191.905 258.621 191.087 258.076 189.996C257.53 188.896 257.257 187.511 257.257 185.841V173.364H260.275V185.636C260.275 187.068 260.675 188.21 261.476 189.062C262.286 189.915 263.317 190.341 264.57 190.341C265.32 190.341 266.083 190.149 266.858 189.766C267.642 189.382 268.299 188.794 268.827 188.001C269.364 187.209 269.632 186.199 269.632 184.972ZM278.175 193V173.364H281.09V176.33H281.295C281.653 175.358 282.3 174.57 283.238 173.964C284.175 173.359 285.232 173.057 286.408 173.057C286.63 173.057 286.907 173.061 287.239 173.07C287.572 173.078 287.823 173.091 287.994 173.108V176.176C287.891 176.151 287.657 176.112 287.29 176.061C286.933 176.001 286.553 175.972 286.153 175.972C285.198 175.972 284.346 176.172 283.596 176.572C282.854 176.964 282.266 177.51 281.832 178.209C281.406 178.899 281.192 179.687 281.192 180.574V193H278.175ZM291.57 193V173.364H294.485V176.33H294.689C295.047 175.358 295.695 174.57 296.632 173.964C297.57 173.359 298.627 173.057 299.803 173.057C300.025 173.057 300.301 173.061 300.634 173.07C300.966 173.078 301.218 173.091 301.388 173.108V176.176C301.286 176.151 301.051 176.112 300.685 176.061C300.327 176.001 299.948 175.972 299.547 175.972C298.593 175.972 297.74 176.172 296.99 176.572C296.249 176.964 295.661 177.51 295.226 178.209C294.8 178.899 294.587 179.687 294.587 180.574V193H291.57ZM312.6 193.409C310.708 193.409 309.076 192.991 307.703 192.156C306.34 191.312 305.287 190.136 304.546 188.628C303.813 187.111 303.446 185.347 303.446 183.335C303.446 181.324 303.813 179.551 304.546 178.017C305.287 176.474 306.319 175.273 307.64 174.412C308.969 173.543 310.52 173.108 312.293 173.108C313.316 173.108 314.326 173.278 315.323 173.619C316.32 173.96 317.228 174.514 318.046 175.281C318.864 176.04 319.516 177.045 320.002 178.298C320.488 179.551 320.73 181.094 320.73 182.926V184.205H305.594V181.597H317.662C317.662 180.489 317.441 179.5 316.998 178.631C316.563 177.761 315.941 177.075 315.131 176.572C314.33 176.07 313.384 175.818 312.293 175.818C311.091 175.818 310.051 176.116 309.174 176.713C308.304 177.301 307.635 178.068 307.167 179.014C306.698 179.96 306.463 180.974 306.463 182.057V183.795C306.463 185.278 306.719 186.536 307.23 187.567C307.75 188.589 308.471 189.369 309.391 189.906C310.311 190.435 311.381 190.699 312.6 190.699C313.392 190.699 314.108 190.588 314.748 190.366C315.395 190.136 315.953 189.795 316.422 189.344C316.891 188.884 317.253 188.312 317.509 187.631L320.424 188.449C320.117 189.438 319.601 190.307 318.877 191.057C318.152 191.798 317.257 192.378 316.192 192.795C315.127 193.205 313.929 193.409 312.6 193.409ZM328.337 181.188V193H325.32V173.364H328.235V176.432H328.49C328.951 175.435 329.65 174.634 330.587 174.028C331.525 173.415 332.735 173.108 334.218 173.108C335.547 173.108 336.711 173.381 337.708 173.926C338.705 174.463 339.48 175.281 340.034 176.381C340.588 177.472 340.865 178.852 340.865 180.523V193H337.848V180.727C337.848 179.185 337.448 177.983 336.647 177.122C335.846 176.253 334.746 175.818 333.348 175.818C332.385 175.818 331.525 176.027 330.766 176.445C330.016 176.862 329.424 177.472 328.989 178.273C328.554 179.074 328.337 180.045 328.337 181.188ZM354.918 173.364V175.92H344.742V173.364H354.918ZM347.708 168.659H350.725V187.375C350.725 188.227 350.849 188.866 351.096 189.293C351.352 189.71 351.675 189.991 352.067 190.136C352.468 190.273 352.89 190.341 353.333 190.341C353.665 190.341 353.938 190.324 354.151 190.29C354.364 190.247 354.535 190.213 354.663 190.188L355.276 192.898C355.072 192.974 354.786 193.051 354.42 193.128C354.053 193.213 353.589 193.256 353.026 193.256C352.174 193.256 351.339 193.072 350.521 192.706C349.711 192.339 349.038 191.781 348.501 191.031C347.972 190.281 347.708 189.335 347.708 188.193V168.659Z" fill="white"/>
<path d="M242.479 283V256.818H251.326C253.38 256.818 255.059 257.189 256.363 257.93C257.675 258.663 258.647 259.656 259.277 260.909C259.908 262.162 260.223 263.56 260.223 265.102C260.223 266.645 259.908 268.047 259.277 269.308C258.655 270.57 257.692 271.575 256.388 272.325C255.084 273.067 253.414 273.438 251.377 273.438H245.036V270.625H251.275C252.681 270.625 253.81 270.382 254.662 269.896C255.515 269.411 256.132 268.754 256.516 267.928C256.908 267.092 257.104 266.151 257.104 265.102C257.104 264.054 256.908 263.116 256.516 262.29C256.132 261.463 255.51 260.815 254.65 260.347C253.789 259.869 252.647 259.631 251.223 259.631H245.65V283H242.479ZM272.688 283.409C270.915 283.409 269.36 282.987 268.022 282.143C266.692 281.3 265.652 280.119 264.902 278.602C264.161 277.085 263.79 275.312 263.79 273.284C263.79 271.239 264.161 269.453 264.902 267.928C265.652 266.402 266.692 265.217 268.022 264.374C269.36 263.53 270.915 263.108 272.688 263.108C274.461 263.108 276.012 263.53 277.341 264.374C278.679 265.217 279.719 266.402 280.461 267.928C281.211 269.453 281.586 271.239 281.586 273.284C281.586 275.312 281.211 277.085 280.461 278.602C279.719 280.119 278.679 281.3 277.341 282.143C276.012 282.987 274.461 283.409 272.688 283.409ZM272.688 280.699C274.034 280.699 275.142 280.354 276.012 279.663C276.881 278.973 277.525 278.065 277.942 276.94C278.36 275.815 278.569 274.597 278.569 273.284C278.569 271.972 278.36 270.749 277.942 269.615C277.525 268.482 276.881 267.565 276.012 266.866C275.142 266.168 274.034 265.818 272.688 265.818C271.341 265.818 270.233 266.168 269.364 266.866C268.495 267.565 267.851 268.482 267.434 269.615C267.016 270.749 266.807 271.972 266.807 273.284C266.807 274.597 267.016 275.815 267.434 276.94C267.851 278.065 268.495 278.973 269.364 279.663C270.233 280.354 271.341 280.699 272.688 280.699ZM289.972 283L283.989 263.364H287.159L291.404 278.398H291.608L295.801 263.364H299.023L303.165 278.347H303.37L307.614 263.364H310.784L304.801 283H301.836L297.54 267.915H297.233L292.938 283H289.972ZM322.338 283.409C320.446 283.409 318.814 282.991 317.442 282.156C316.078 281.312 315.026 280.136 314.284 278.628C313.551 277.111 313.185 275.347 313.185 273.335C313.185 271.324 313.551 269.551 314.284 268.017C315.026 266.474 316.057 265.273 317.378 264.412C318.707 263.543 320.259 263.108 322.031 263.108C323.054 263.108 324.064 263.278 325.061 263.619C326.058 263.96 326.966 264.514 327.784 265.281C328.602 266.04 329.254 267.045 329.74 268.298C330.226 269.551 330.469 271.094 330.469 272.926V274.205H315.332V271.597H327.401C327.401 270.489 327.179 269.5 326.736 268.631C326.301 267.761 325.679 267.075 324.869 266.572C324.068 266.07 323.122 265.818 322.031 265.818C320.83 265.818 319.79 266.116 318.912 266.713C318.043 267.301 317.374 268.068 316.905 269.014C316.436 269.96 316.202 270.974 316.202 272.057V273.795C316.202 275.278 316.457 276.536 316.969 277.567C317.489 278.589 318.209 279.369 319.129 279.906C320.05 280.435 321.119 280.699 322.338 280.699C323.131 280.699 323.847 280.588 324.486 280.366C325.134 280.136 325.692 279.795 326.161 279.344C326.629 278.884 326.991 278.312 327.247 277.631L330.162 278.449C329.855 279.438 329.339 280.307 328.615 281.057C327.891 281.798 326.996 282.378 325.93 282.795C324.865 283.205 323.668 283.409 322.338 283.409ZM335.058 283V263.364H337.973V266.33H338.178C338.536 265.358 339.183 264.57 340.121 263.964C341.058 263.359 342.115 263.057 343.291 263.057C343.513 263.057 343.79 263.061 344.122 263.07C344.455 263.078 344.706 263.091 344.876 263.108V266.176C344.774 266.151 344.54 266.112 344.173 266.061C343.815 266.001 343.436 265.972 343.036 265.972C342.081 265.972 341.229 266.172 340.479 266.572C339.737 266.964 339.149 267.51 338.714 268.209C338.288 268.899 338.075 269.687 338.075 270.574V283H335.058Z" fill="white"/>
</svg>
