<svg width="141" height="366" viewBox="0 0 141 366" fill="none" xmlns="http://www.w3.org/2000/svg">
<path d="M71.0107 1.5C71.455 1.50326 71.8757 1.70301 72.1582 2.0459L71 3C72.1577 2.04622 72.1585 2.04705 72.1592 2.04785C72.1597 2.04852 72.1602 2.04968 72.1611 2.05078C72.1633 2.05348 72.1667 2.05738 72.1709 2.0625C72.1793 2.07272 72.1918 2.08763 72.208 2.10742C72.2406 2.14718 72.2892 2.20648 72.3525 2.28418C72.4792 2.43958 72.6658 2.67047 72.9092 2.97266C73.3962 3.57734 74.1094 4.46909 75.0156 5.62305C76.8282 7.93125 79.4152 11.2878 82.5186 15.4863C88.7242 23.8818 96.9999 35.6538 105.278 49.1562C113.554 62.655 121.849 77.9086 128.077 93.2656C134.298 108.604 138.499 124.14 138.5 138.181L139.5 362.993C139.502 363.392 139.345 363.776 139.063 364.059C138.782 364.341 138.399 364.5 138 364.5H3C2.17157 364.5 1.5 363.828 1.5 363V138.188C1.50005 124.136 5.8303 108.592 12.2412 93.251C18.6593 77.8924 27.2045 62.6375 35.7314 49.1387C44.2608 35.636 52.788 23.8642 59.1816 15.4688C62.379 11.2703 65.0446 7.91457 66.9121 5.60645C67.8459 4.45231 68.5802 3.55979 69.082 2.95508C69.3329 2.65278 69.5258 2.42197 69.6562 2.2666C69.7213 2.18908 69.7712 2.13052 69.8047 2.09082C69.8213 2.07111 69.8341 2.05613 69.8428 2.0459C69.8469 2.04099 69.8503 2.03686 69.8525 2.03418C69.8537 2.03283 69.8549 2.03095 69.8555 2.03027C69.8572 2.03044 69.8913 2.0588 70.9473 2.95508L69.8564 2.0293C70.1439 1.69068 70.5666 1.49682 71.0107 1.5Z" fill="#1E1E1E" stroke="#00FFFF" stroke-width="3" stroke-linejoin="round"/>
</svg>
