<svg width="141" height="366" viewBox="0 0 141 366" fill="none" xmlns="http://www.w3.org/2000/svg">
<path d="M71.0107 1.5C71.455 1.50326 71.8757 1.70301 72.1582 2.0459L71 3C72.1577 2.04622 72.1585 2.04705 72.1592 2.04785C72.1597 2.04852 72.1602 2.04968 72.1611 2.05078C72.1633 2.05348 72.1667 2.05738 72.1709 2.0625C72.1793 2.07272 72.1918 2.08763 72.208 2.10742C72.2406 2.14718 72.2892 2.20648 72.3525 2.28418C72.4792 2.43958 72.6658 2.67047 72.9092 2.97266C73.3962 3.57734 74.1094 4.46909 75.0156 5.62305C76.8282 7.93125 79.4152 11.2878 82.5186 15.4863C88.7242 23.8818 96.9999 35.6538 105.278 49.1562C113.554 62.655 121.849 77.9086 128.077 93.2656C134.298 108.604 138.499 124.14 138.5 138.181L139.5 362.993C139.502 363.392 139.345 363.776 139.063 364.059C138.782 364.341 138.399 364.5 138 364.5H3C2.17157 364.5 1.5 363.828 1.5 363V138.188C1.50005 124.136 5.8303 108.592 12.2412 93.251C18.6593 77.8924 27.2045 62.6375 35.7314 49.1387C44.2608 35.636 52.788 23.8642 59.1816 15.4688C62.379 11.2703 65.0446 7.91457 66.9121 5.60645C67.8459 4.45231 68.5802 3.55979 69.082 2.95508C69.3329 2.65278 69.5258 2.42197 69.6562 2.2666C69.7213 2.18908 69.7712 2.13052 69.8047 2.09082C69.8213 2.07111 69.8341 2.05613 69.8428 2.0459C69.8469 2.04099 69.8503 2.03686 69.8525 2.03418C69.8537 2.03283 69.8549 2.03095 69.8555 2.03027C69.8572 2.03044 69.8913 2.0588 70.9473 2.95508L69.8564 2.0293C70.1439 1.69068 70.5666 1.49682 71.0107 1.5Z" fill="#1E1E1E" stroke="#00FFFF" stroke-width="3" stroke-linejoin="round"/>
<rect x="56.5" y="80.5" width="28" height="65.5" stroke="#00C000" stroke-width="2"/>
<path d="M63 135.75L77.25 109.5H72L77.25 90.75L63 114H68.25L63 135.75Z" stroke="#CCC500"/>
<rect x="49" y="195.25" width="43" height="31.75" stroke="#00FFFF" stroke-width="2"/>
<rect x="56.5" y="259" width="28" height="28" stroke="#00C000" stroke-width="2"/>
<rect x="85" y="362" width="28" height="43" transform="rotate(-180 85 362)" stroke="#00C000" stroke-width="2"/>
<rect x="119" y="362" width="14" height="22" transform="rotate(-180 119 362)" stroke="#CCC500" stroke-width="2"/>
<rect x="36" y="362" width="14" height="22" transform="rotate(-180 36 362)" stroke="#C00000" stroke-width="2"/>
<path d="M69.4091 212.894C67.4277 215.364 65.3099 217.5 62.3182 217.5C59.0454 217.5 56.3182 214.773 56.3182 211.5C56.3182 208.227 59.0454 205.5 62.3182 205.5C69.4091 205.5 71.5909 217.5 78.6818 217.5C81.9545 217.5 84.6818 214.773 84.6818 211.5C84.6818 208.227 81.9545 205.5 78.6818 205.5C75.6901 205.5 73.5723 207.636 71.5909 210.106" stroke="white" stroke-width="1.5" stroke-linecap="round"/>
<path d="M62.3182 209.318V213.682M64.5 211.5H60.1364" stroke="white" stroke-linecap="round"/>
<path d="M80.8637 211.5H76.5" stroke="white" stroke-linecap="round"/>
<path d="M70.5 277.875L75 271.125" stroke="#FF0000" stroke-linecap="round"/>
<path d="M70.5 267.75C75 267.75 78.75 271.125 78.75 277.875H70.5H62.25C62.25 271.125 66 267.75 70.5 267.75Z" stroke="white" stroke-linecap="round"/>
<circle cx="71" cy="341" r="2.45455" stroke="white"/>
<path d="M69.7727 338.545C69.3636 337.727 67.5 337.636 67.5 336C67.5 334.364 69 332 71 332C73 332 73.5 334.364 73.5 336C73.5 337.636 72.6364 337.727 72.2273 338.545" stroke="white"/>
<path d="M68.5455 342.227C67.7273 342.636 67.7273 344.273 66.0909 344.273C64.4545 344.273 62 343 62 341C62 339 64.4545 338.5 66.0909 338.5C67.7273 338.5 67.7273 339.364 68.5455 339.773" stroke="white"/>
<path d="M72.2273 343.455C72.6364 344.273 74.2727 344.273 74.2727 345.909C74.2727 347.545 73 350 71 350C69 350 68.5 347.545 68.5 345.909C68.5 344.273 69.3636 344.273 69.7727 343.455" stroke="white"/>
<path d="M73.4545 339.773C74.2727 339.364 74.2727 337.727 75.9091 337.727C77.5455 337.727 80 339 80 341C80 343 77.5455 343.5 75.9091 343.5C74.2727 343.5 74.2727 342.636 73.4545 342.227" stroke="white"/>
<circle cx="109.963" cy="355.037" r="1.96261" stroke="white"/>
<circle cx="114.528" cy="351.042" r="1.47196" stroke="white"/>
<circle cx="110.222" cy="347.792" r="1.47196" stroke="white"/>
<circle cx="114.222" cy="344.981" r="0.981307" stroke="white"/>
<path d="M29 345V351.545L26 357" stroke="white" stroke-linecap="round"/>
</svg>
