<svg width="19" height="19" viewBox="0 0 19 19" fill="none" xmlns="http://www.w3.org/2000/svg">
<circle cx="9.5" cy="9.49999" r="2.45455" stroke="white"/>
<path d="M8.27273 7.04545C7.86364 6.22727 6 6.13636 6 4.5C6 2.86364 7.50001 0.5 9.50001 0.5C11.5 0.5 12 2.86364 12 4.5C12 6.13636 11.1364 6.22727 10.7273 7.04545" stroke="white"/>
<path d="M7.04545 10.7273C6.22727 11.1364 6.22727 12.7727 4.59091 12.7727C2.95455 12.7727 0.5 11.5 0.5 9.50001C0.5 7.5 2.95455 7.00001 4.59091 7C6.22727 6.99999 6.22727 7.86364 7.04545 8.27274" stroke="white"/>
<path d="M10.7273 11.9545C11.1364 12.7727 12.7727 12.7727 12.7727 14.4091C12.7727 16.0455 11.5 18.5 9.49999 18.5C7.5 18.5 7.00001 16.0455 7 14.4091C6.99999 12.7727 7.86363 12.7727 8.27272 11.9545" stroke="white"/>
<path d="M11.9545 8.27272C12.7727 7.86363 12.7727 6.22726 14.4091 6.22726C16.0455 6.22726 18.5 7.5 18.5 9.49999C18.5 11.5 16.0455 12 14.4091 12C12.7727 12 12.7727 11.1364 11.9545 10.7273" stroke="white"/>
</svg>
